# Blender v2.78 (sub 0) OBJ File: 'projekt.blend'
# www.blender.org
mtllib ceiling.mtl
o Cube.001_Cube.002
v -7.995301 2.523119 7.995301
v -7.995301 2.491468 7.995301
v -7.995301 2.523119 -7.995301
v -7.995301 2.491468 -7.995301
v 7.995301 2.523119 7.995301
v 7.995301 2.491468 7.995301
v 7.995301 2.523119 -7.995301
v 7.995301 2.491468 -7.995301
vt 11.7099 -10.7099
vt -10.7099 11.7099
vt -10.7099 -10.7099
vt 11.7099 -10.7099
vt -10.7099 11.7099
vt -10.7099 -10.7099
vt 11.7099 -10.7099
vt -10.7099 11.7099
vt -10.7099 -10.7099
vt 11.7099 -10.7099
vt -10.7099 11.7099
vt -10.7099 -10.7099
vt 11.7099 -10.7099
vt -10.7099 11.7099
vt -10.7099 -10.7099
vt 11.7099 11.7099
vt 11.7099 11.7099
vt 11.7099 11.7099
vt 11.7099 11.7099
vt 11.7099 11.7099
vn 1.0000 0.0000 0.0000
vn 0.0000 0.0000 1.0000
vn -1.0000 0.0000 0.0000
vn 0.0000 0.0000 -1.0000
vn 0.0000 -1.0000 0.0000
vn 0.0000 1.0000 0.0000
usemtl None
s off
f 2/1/1 3/2/1 1/3/1
f 4/4/2 7/5/2 3/6/2
f 8/7/3 5/8/3 7/9/3
f 6/10/4 1/11/4 5/12/4
f 7/13/5 1/11/5 3/6/5
f 4/4/6 6/14/6 8/15/6
f 2/1/1 4/16/1 3/2/1
f 4/4/2 8/17/2 7/5/2
f 8/7/3 6/18/3 5/8/3
f 6/10/4 2/19/4 1/11/4
f 7/13/5 5/20/5 1/11/5
f 4/4/6 2/19/6 6/14/6
