# Blender v2.78 (sub 0) OBJ File: ''
# www.blender.org
mtllib Deseczka.mtl
o Plane
v -8.329032 0.000000 8.329032
v 8.329032 0.000000 8.329032
v -8.329032 0.000000 -8.329032
v 8.329032 0.000000 -8.329032
v -8.329032 -0.083290 8.329032
v -8.329032 -0.083290 -8.329032
v 8.329032 -0.083290 -8.329032
v 8.329032 -0.083290 8.329032
vt 0.4038 0.0736
vt 0.0712 0.7389
vt 0.0712 0.0736
vt 0.5279 0.7504
vt 0.8065 0.1933
vt 0.5279 0.1933
vt 0.0570 0.5091
vt 0.5031 0.5046
vt 0.5031 0.5091
vt 0.9493 0.5091
vt 0.5031 0.5046
vt 0.5031 0.5091
vt 0.9493 0.5091
vt 0.5031 0.5046
vt 0.5031 0.5091
vt 0.0570 0.5091
vt 0.5031 0.5046
vt 0.5031 0.5091
vt 0.4038 0.7389
vt 0.8065 0.7504
vt 0.0570 0.5046
vt 0.9493 0.5046
vt 0.9493 0.5046
vt 0.0570 0.5046
vn 0.0000 1.0000 0.0000
vn 0.0000 -1.0000 0.0000
vn 1.0000 0.0000 0.0000
vn -1.0000 0.0000 0.0000
vn 0.0000 0.0000 -1.0000
vn 0.0000 0.0000 1.0000
usemtl None
s off
f 2/1/1 3/2/1 1/3/1
f 6/4/2 8/5/2 5/6/2
f 2/7/3 7/8/3 4/9/3
f 3/10/4 5/11/4 1/12/4
f 4/13/5 6/14/5 3/15/5
f 1/16/6 8/17/6 2/18/6
f 2/1/1 4/19/1 3/2/1
f 6/4/2 7/20/2 8/5/2
f 2/7/3 8/21/3 7/8/3
f 3/10/4 6/22/4 5/11/4
f 4/13/5 7/23/5 6/14/5
f 1/16/6 5/24/6 8/17/6
