# Blender v2.78 (sub 0) OBJ File: 'projekt.blend'
# www.blender.org
mtllib wall.mtl
o Cube.003_Cube.004
v 7.956177 -0.099277 7.983078
v 7.924526 -0.099277 7.983078
v 7.956177 2.648127 7.983078
v 7.924526 2.648127 7.983078
v 7.956176 -0.099277 -8.007525
v 7.924525 -0.099277 -8.007525
v 7.956177 2.648127 -8.007525
v 7.924526 2.648127 -8.007525
v -7.924526 -0.099277 7.983078
v -7.956177 -0.099277 7.983078
v -7.924525 2.648127 7.983078
v -7.956176 2.648127 7.983078
v -7.924526 -0.099277 -8.007524
v -7.956177 -0.099277 -8.007524
v -7.924526 2.648127 -8.007524
v -7.956177 2.648127 -8.007524
v -7.995301 -0.099277 -7.936750
v -7.995301 -0.099277 -7.968401
v -7.995301 2.648127 -7.936749
v -7.995301 2.648127 -7.968400
v 7.995301 -0.099277 -7.936750
v 7.995301 -0.099277 -7.968401
v 7.995301 2.648127 -7.936749
v 7.995301 2.648127 -7.968400
v -7.995301 -0.099277 7.943954
v -7.995301 -0.099277 7.912303
v -7.995301 2.648127 7.943954
v -7.995301 2.648127 7.912303
v 7.995301 -0.099277 7.943954
v 7.995301 -0.099277 7.912303
v 7.995301 2.648127 7.943954
v 7.995301 2.648127 7.912303
v -7.924525 2.648127 7.983078
v -7.924525 2.648127 7.983078
v -7.924526 -0.099277 7.983078
v -7.924526 -0.099277 7.983078
v -0.957083 2.648127 7.943954
v -0.957083 2.648127 7.912303
v 2.622909 2.648127 7.912303
v 2.622908 2.648127 7.943954
v -7.995301 2.163913 7.943954
v -7.995301 2.163913 7.912303
v 7.995301 2.163913 7.943954
v 7.995301 2.163913 7.912303
v -0.957083 2.163913 7.912303
v -0.957083 2.163913 7.943954
v 2.622909 2.163913 7.912303
v 2.622908 2.163913 7.943954
v 7.995301 2.163913 7.928129
v -7.995301 2.163913 7.928129
v -0.957083 2.163913 7.943954
v 2.622908 2.163913 7.943954
v -0.957083 0.668452 7.943954
v -0.957083 0.668452 7.912303
v 2.622909 0.668452 7.943954
v 2.622908 0.668452 7.912303
vt -4.1501 0.0000
vt 5.1501 1.0000
vt -4.1501 1.0000
vt -4.1501 0.0000
vt 5.1501 1.0000
vt -4.1501 1.0000
vt -4.1501 0.0000
vt 5.1501 1.0000
vt -4.1501 1.0000
vt -4.1501 0.0000
vt 5.1501 1.0000
vt -4.1501 1.0000
vt 5.1501 1.0000
vt -4.1501 0.0000
vt -4.1501 1.0000
vt -4.1501 1.0000
vt -4.1501 0.0000
vt -4.1501 1.0000
vt -4.1501 0.0000
vt 5.1501 1.0000
vt -4.1501 1.0000
vt -4.1501 0.0000
vt 5.1501 1.0000
vt -4.1501 1.0000
vt -4.1501 1.0000
vt -4.1501 0.0000
vt 5.1501 1.0000
vt -4.1501 1.0000
vt -4.1501 0.0000
vt -4.1501 1.0000
vt -4.1501 0.0000
vt -4.1501 1.0000
vt -4.1501 0.0000
vt 5.1501 1.0000
vt -4.1501 1.0000
vt -4.1501 0.0000
vt 5.1501 1.0000
vt -4.1501 1.0000
vt -4.1501 0.0000
vt 5.1501 1.0000
vt -4.1501 1.0000
vt -4.1501 0.0000
vt 5.1501 1.0000
vt -4.1501 1.0000
vt 5.1501 1.0000
vt -4.1501 0.0000
vt -4.1501 1.0000
vt 5.1501 -0.0000
vt 5.1501 0.5000
vt 0.5000 0.5000
vt -4.1501 0.0000
vt 5.1501 0.2500
vt -4.1501 0.2500
vt 5.1501 -0.0000
vt 5.1501 0.5000
vt 0.5000 0.5000
vt 5.1501 1.0000
vt 5.1501 1.0000
vt -4.1501 0.5000
vt 5.1501 1.0000
vt -4.1501 1.0000
vt 5.1501 1.0000
vt -4.1501 0.0000
vt -4.1501 1.0000
vt 5.1501 0.5000
vt 5.1501 1.0000
vt -4.1501 0.5000
vt -0.0591 0.8422
vt 1.8737 0.8422
vt -0.0591 0.8422
vt 0.2292 0.1761
vt 0.1893 0.7724
vt 0.1893 0.1762
vt 0.2619 0.8457
vt 0.3245 0.2645
vt 0.2619 0.2645
vt 1.8737 0.2687
vt 4.7742 1.0280
vt 4.7742 -0.0258
vt 1.8737 0.2687
vt 4.7742 1.0280
vt 4.7742 -0.0258
vt -0.0591 0.2687
vt -3.8590 -0.0258
vt -0.0591 0.2687
vt -3.8590 -0.0258
vt -3.8590 1.0280
vt -3.8590 1.0280
vt 1.8737 0.8422
vt 1.2547 0.5129
vt -0.6349 0.5679
vt 1.2547 0.5679
vt 5.1501 -0.0000
vt 5.1501 -0.0000
vt 5.1501 -0.0000
vt 5.1501 -0.0000
vt 5.1501 -0.0000
vt -4.1501 0.0000
vt 5.1501 -0.0000
vt 5.1501 -0.0000
vt -4.1501 0.0000
vt 5.1501 -0.0000
vt 5.1501 -0.0000
vt 5.1501 -0.0000
vt 5.1501 -0.0000
vt 5.1501 -0.0000
vt 5.1501 -0.0000
vt -4.1501 0.0000
vt 5.1501 -0.0000
vt -4.1501 0.5000
vt 5.1501 -0.0000
vt 5.1501 -0.0000
vt -4.1501 1.0000
vt 0.2292 0.7724
vt 0.3245 0.8457
vt -0.6349 0.5129
vn 0.0000 0.0000 1.0000
vn 0.0000 1.0000 -0.0000
vn 0.0000 0.0000 -1.0000
vn 0.0000 -1.0000 -0.0000
vn 1.0000 0.0000 -0.0000
vn -1.0000 0.0000 0.0000
usemtl None
s off
f 3/1/1 2/2/1 1/3/1
f 7/4/2 4/5/2 3/6/2
f 5/7/3 8/8/3 7/9/3
f 1/10/4 6/11/4 5/12/4
f 1/10/5 7/13/5 3/6/5
f 6/14/6 4/5/6 8/15/6
f 9/16/1 33/17/1 35/18/1
f 15/19/2 12/20/2 33/21/2
f 13/22/3 16/23/3 15/24/3
f 13/25/4 35/26/4 14/27/4
f 11/28/1 36/29/1 34/30/1
f 14/31/6 12/20/6 16/32/6
f 19/33/6 18/34/6 17/35/6
f 23/36/2 20/37/2 19/38/2
f 21/39/5 24/40/5 23/41/5
f 17/42/4 22/43/4 21/44/4
f 17/42/1 23/45/1 19/38/1
f 22/46/3 20/37/3 24/47/3
f 28/48/6 42/49/6 50/50/6
f 31/51/2 39/52/2 40/53/2
f 30/54/5 44/55/5 49/56/5
f 36/29/5 15/57/5 34/30/5
f 33/17/1 10/58/1 35/18/1
f 37/59/2 28/60/2 27/61/2
f 26/62/4 29/63/4 25/64/4
f 40/53/2 38/65/2 37/59/2
f 49/56/5 44/55/5 32/66/5
f 41/67/6 50/50/6 25/64/6
f 45/68/4 52/69/4 51/70/4
f 55/71/6 47/72/6 56/73/6
f 45/74/5 53/75/5 54/76/5
f 56/77/3 32/78/3 30/79/3
f 55/80/1 31/81/1 52/69/1
f 29/82/1 53/83/1 25/84/1
f 54/85/3 30/79/3 26/86/3
f 54/85/3 28/87/3 45/68/3
f 53/83/1 27/88/1 25/84/1
f 45/68/3 32/78/3 47/89/3
f 51/70/1 31/81/1 27/88/1
f 56/90/2 53/91/2 55/92/2
f 3/1/1 4/93/1 2/2/1
f 7/4/2 8/94/2 4/5/2
f 5/7/3 6/95/3 8/8/3
f 1/10/4 2/96/4 6/11/4
f 1/10/5 5/97/5 7/13/5
f 6/14/6 2/96/6 4/5/6
f 9/16/1 11/98/1 33/17/1
f 33/21/1 11/28/1 34/30/1
f 15/19/2 16/99/2 12/20/2
f 33/21/1 34/30/1 15/19/1
f 13/22/3 14/100/3 16/23/3
f 36/29/1 9/101/1 35/26/1
f 35/26/4 10/102/4 14/27/4
f 13/25/1 36/29/1 35/26/1
f 11/28/1 9/101/1 36/29/1
f 14/31/6 10/102/6 12/20/6
f 19/33/6 20/103/6 18/34/6
f 23/36/2 24/104/2 20/37/2
f 21/39/5 22/105/5 24/40/5
f 17/42/4 18/106/4 22/43/4
f 17/42/1 21/107/1 23/45/1
f 22/46/3 18/106/3 20/37/3
f 50/50/6 41/67/6 27/108/6
f 27/108/6 28/48/6 50/50/6
f 31/51/2 32/109/2 39/52/2
f 49/56/5 43/110/5 29/63/5
f 29/63/5 30/54/5 49/56/5
f 36/29/5 13/111/5 15/57/5
f 33/17/1 12/112/1 10/58/1
f 37/59/2 38/65/2 28/60/2
f 26/62/4 30/54/4 29/63/4
f 40/53/2 39/52/2 38/65/2
f 32/66/5 31/113/5 49/56/5
f 43/110/5 49/56/5 31/113/5
f 26/62/6 25/64/6 50/50/6
f 50/50/6 42/49/6 26/62/6
f 45/68/4 47/89/4 52/69/4
f 55/71/6 52/114/6 47/72/6
f 45/74/5 51/115/5 53/75/5
f 56/77/3 47/89/3 32/78/3
f 55/80/1 29/82/1 31/81/1
f 29/82/1 55/80/1 53/83/1
f 54/85/3 56/77/3 30/79/3
f 54/85/3 26/86/3 28/87/3
f 53/83/1 51/70/1 27/88/1
f 45/68/3 28/87/3 32/78/3
f 51/70/1 52/69/1 31/81/1
f 56/90/2 54/116/2 53/91/2
l 46 51
l 48 52
